<?xml version="1.0" encoding="utf-8"?>
<!-- Generator: Adobe Illustrator 18.0.0, SVG Export Plug-In . SVG Version: 6.00 Build 0)  -->
<!DOCTYPE svg PUBLIC "-//W3C//DTD SVG 1.1//EN" "http://www.w3.org/Graphics/SVG/1.1/DTD/svg11.dtd">
<svg version="1.1" id="Layer_1" xmlns="http://www.w3.org/2000/svg" xmlns:xlink="http://www.w3.org/1999/xlink" x="0px" y="0px"
	 viewBox="4 13.3 92 28.1" enable-background="new 4 13.3 92 28.1" xml:space="preserve">
<path fill="#CDC9C1" d="M5,33.6c0,3.9,19.9,7,44.4,7s44.4-3.1,44.4-7H5z"/>
<g>
	<path fill="none" d="M49.4,40.3c23.9,0,41.2-2.9,43.6-5.8H5.8C8.2,37.4,25.4,40.3,49.4,40.3z"/>
	<path d="M49.4,40.3c-23.9,0-41.2-2.9-43.6-5.8H4.7c2.1,4.4,24,6.8,44.7,6.8s42.6-2.4,44.7-6.8h-1.1C90.5,37.4,73.3,40.3,49.4,40.3z
		"/>
	<path d="M5.5,33.8c0,0.2,0.1,0.5,0.3,0.7h87.1c0.2-0.2,0.3-0.5,0.3-0.7c0-0.4-0.4-0.9-1.1-1.3H6.6C5.9,32.9,5.5,33.4,5.5,33.8z"/>
	<path d="M96,13.3H4v21.2h0.7c-0.1-0.2-0.2-0.5-0.2-0.7c0-0.7,0.5-1.4,1.5-2.1V15.3h88v17.2h-0.4c0.4,0.4,0.6,0.9,0.6,1.3
		c0,0.2-0.1,0.5-0.2,0.7H96V13.3z"/>
	<path d="M5.5,33.8c0-0.4,0.4-0.9,1.1-1.3H6v-0.7c-1,0.6-1.5,1.3-1.5,2.1c0,0.2,0.1,0.5,0.2,0.7h1.1C5.6,34.3,5.5,34,5.5,33.8z"/>
	<path d="M93.6,32.5h-1.5c0.7,0.4,1.1,0.9,1.1,1.3c0,0.2-0.1,0.5-0.3,0.7h1.1c0.1-0.2,0.2-0.5,0.2-0.7C94.2,33.3,94,32.9,93.6,32.5z
		"/>
</g>
</svg>
