<?xml version="1.0" encoding="utf-8"?>
<!-- Generator: Adobe Illustrator 17.0.0, SVG Export Plug-In . SVG Version: 6.00 Build 0)  -->
<!DOCTYPE svg PUBLIC "-//W3C//DTD SVG 1.1//EN" "http://www.w3.org/Graphics/SVG/1.1/DTD/svg11.dtd">
<svg version="1.1" id="Layer_1" xmlns="http://www.w3.org/2000/svg" xmlns:xlink="http://www.w3.org/1999/xlink" x="0px" y="0px"
	 width="65px" height="65px" viewBox="0 0 65 65" enable-background="new 0 0 65 65" xml:space="preserve">
<path d="M33.787,16.01c2.209,0.029,3.981,1.484,3.958,3.251l-0.49,37.582c-0.023,1.766-1.832,3.175-4.041,3.146l0,0
	c-2.209-0.029-3.981-1.484-3.958-3.251l0.49-37.582C29.769,17.39,31.578,15.981,33.787,16.01L33.787,16.01z"/>
<path d="M60,36c0,2.209-1.791,4-4,4H9c-2.209,0-4-1.791-4-4l0,0c0-2.209,1.791-4,4-4h47C58.209,32,60,33.791,60,36L60,36z"/>
<path fill="#FFFFFF" stroke="#000000" stroke-width="2" stroke-miterlimit="10" d="M55,44.6C55,50.344,49.372,55,42.429,55H23.571
	C16.628,55,11,50.344,11,44.6V26.4C11,20.656,16.628,16,23.571,16h18.857C49.372,16,55,20.656,55,26.4V44.6z"/>
<path fill="#FFFFFF" stroke="#000000" stroke-width="2" stroke-miterlimit="10" d="M58,10.5c0,2.796-2.583,5.063-5.769,5.063H13.769
	C10.583,15.563,8,13.296,8,10.5l0,0c0-2.796,2.583-5.063,5.769-5.063h38.462C55.417,5.438,58,7.704,58,10.5L58,10.5z"/>
</svg>
