<?xml version="1.0" encoding="utf-8"?>
<!-- Generator: Adobe Illustrator 18.0.0, SVG Export Plug-In . SVG Version: 6.00 Build 0)  -->
<!DOCTYPE svg PUBLIC "-//W3C//DTD SVG 1.1//EN" "http://www.w3.org/Graphics/SVG/1.1/DTD/svg11.dtd">
<svg version="1.1" id="Layer_1" xmlns="http://www.w3.org/2000/svg" xmlns:xlink="http://www.w3.org/1999/xlink" x="0px" y="0px"
	 viewBox="5 4.4 55 55.4" enable-background="new 5 4.4 55 55.4" xml:space="preserve">
<g>
	<path d="M33.8,16c2.2,0,4,1.5,4,3.3l-0.5,37.6c0,1.8-1.8,3.2-4,3.1l0,0c-2.2,0-4-1.5-4-3.3l0.5-37.6C29.8,17.4,31.6,16,33.8,16
		L33.8,16z"/>
</g>
<path d="M60,36c0,2.2-1.8,4-4,4H9c-2.2,0-4-1.8-4-4l0,0c0-2.2,1.8-4,4-4h47C58.2,32,60,33.8,60,36L60,36z"/>
<g>
	<path fill="#FFFFFF" d="M55,44.6C55,50.3,49.4,55,42.4,55H23.6C16.6,55,11,50.3,11,44.6V26.4C11,20.7,16.6,16,23.6,16h18.9
		C49.4,16,55,20.7,55,26.4V44.6z"/>
</g>
<g>
	<path fill="#FFFFFF" d="M58,10.5c0,2.8-2.6,5.1-5.8,5.1H13.8c-3.2,0-5.8-2.3-5.8-5.1l0,0c0-2.8,2.6-5.1,5.8-5.1h38.5
		C55.4,5.4,58,7.7,58,10.5L58,10.5z"/>
	<path d="M59,10.5c0-3.3-3-6.1-6.8-6.1H13.8C10,4.4,7,7.2,7,10.5s3,6.1,6.8,6.1h3c-4,2-6.7,5.6-6.7,9.8v18.2
		C10,50.9,16.1,56,23.6,56h18.9C49.9,56,56,50.9,56,44.6V26.4c0-4.2-2.7-7.9-6.7-9.8h3C56,16.6,59,13.8,59,10.5z M54,26.4v18.2
		c0,5.2-5.2,9.4-11.6,9.4H23.6C17.2,54,12,49.8,12,44.6V26.4c0-5.2,5.2-9.4,11.6-9.4h18.9C48.8,17,54,21.2,54,26.4z M9,10.5
		c0-2.2,2.1-4.1,4.8-4.1h38.5c2.6,0,4.8,1.8,4.8,4.1c0,2.2-2.1,4.1-4.8,4.1H13.8C11.1,14.6,9,12.7,9,10.5z"/>
</g>
</svg>
