<?xml version="1.0" encoding="utf-8"?>
<!-- Generator: Adobe Illustrator 18.0.0, SVG Export Plug-In . SVG Version: 6.00 Build 0)  -->
<!DOCTYPE svg PUBLIC "-//W3C//DTD SVG 1.1//EN" "http://www.w3.org/Graphics/SVG/1.1/DTD/svg11.dtd">
<svg version="1.1" id="Layer_1" xmlns="http://www.w3.org/2000/svg" xmlns:xlink="http://www.w3.org/1999/xlink" x="0px" y="0px"
	 viewBox="5 3 61 65" enable-background="new 5 3 61 65" xml:space="preserve">
<g>
	<rect x="6" y="9" fill="#FFFFFF" width="59" height="58"/>
	<path d="M66,68H5V8h61V68z M7,66h57V10H7V66z"/>
</g>
<g>
	<rect x="11" y="15" fill="#CDC9C1" width="42" height="48"/>
	<path d="M53.5,63.5h-43v-49h43V63.5z M11.5,62.5h41v-47h-41V62.5z"/>
</g>
<g>
	<rect x="16" y="3" width="35" height="33"/>
</g>
<g>
	<path d="M55,48c0,1.7,1.3,3,3,3l0,0c1.7,0,3-1.3,3-3v-1c0-1.7-1.3-3-3-3l0,0c-1.7,0-3,1.3-3,3V48z"/>
</g>
<g>
	<path d="M55,58c0,1.7,1.3,3,3,3l0,0c1.7,0,3-1.3,3-3v-1c0-1.7-1.3-3-3-3l0,0c-1.7,0-3,1.3-3,3V58z"/>
</g>
</svg>
