<?xml version="1.0" encoding="utf-8"?>
<!-- Generator: Adobe Illustrator 17.0.0, SVG Export Plug-In . SVG Version: 6.00 Build 0)  -->
<!DOCTYPE svg PUBLIC "-//W3C//DTD SVG 1.1//EN" "http://www.w3.org/Graphics/SVG/1.1/DTD/svg11.dtd">
<svg version="1.1" id="Layer_1" xmlns="http://www.w3.org/2000/svg" xmlns:xlink="http://www.w3.org/1999/xlink" x="0px" y="0px"
	 width="70px" height="70px" viewBox="0 0 70 70" enable-background="new 0 0 70 70" xml:space="preserve">
<rect x="6" y="9" fill="#FFFFFF" stroke="#000000" stroke-width="2" stroke-miterlimit="10" width="59" height="58"/>
<rect x="11" y="15" fill="#CDC9C1" stroke="#000000" stroke-miterlimit="10" width="42" height="48"/>
<rect x="16" y="3" width="35" height="33"/>
<path d="M55,48c0,1.657,1.343,3,3,3l0,0c1.657,0,3-1.343,3-3v-1c0-1.657-1.343-3-3-3l0,0c-1.657,0-3,1.343-3,3V48z"/>
<path d="M55,58c0,1.657,1.343,3,3,3l0,0c1.657,0,3-1.343,3-3v-1c0-1.657-1.343-3-3-3l0,0c-1.657,0-3,1.343-3,3V58z"/>
</svg>
