<?xml version="1.0" encoding="utf-8"?>
<!-- Generator: Adobe Illustrator 18.0.0, SVG Export Plug-In . SVG Version: 6.00 Build 0)  -->
<!DOCTYPE svg PUBLIC "-//W3C//DTD SVG 1.1//EN" "http://www.w3.org/Graphics/SVG/1.1/DTD/svg11.dtd">
<svg version="1.1" id="Layer_1" xmlns="http://www.w3.org/2000/svg" xmlns:xlink="http://www.w3.org/1999/xlink" x="0px" y="0px"
	 viewBox="6 10 129.7 61.5" enable-background="new 6 10 129.7 61.5" xml:space="preserve">
<g>
	<polygon fill="#FFFFFF" points="65,70.3 9.6,58.2 11.7,51.7 67.1,63.9 	"/>
	<rect x="7" y="11" fill="#FFFFFF" width="63" height="46"/>
	<rect x="71" y="11" fill="#FFFFFF" width="63" height="46"/>
	<polygon fill="#FFFFFF" points="134.7,64.6 71.8,64.8 71.8,58.1 134.7,57.8 	"/>
</g>
<path d="M135.7,56.8l-0.7,0V10H71H70H6v48h2.6l-0.3,0.9l57.4,12.6l2.8-8.4L45.3,58H70h0.8l0,7.7l64.9-0.2L135.7,56.8z M65.9,64.6
	l-1.5,4.6L13.7,58H36L65.9,64.6z M69,56H43.6h-7.4h-9.3H11.3H9.2H8v-9.4V12h61V56z M72,12h61v44H72V12z M72.8,63.8l0-4.7l60.9-0.2
	l0,4.7L72.8,63.8z"/>
</svg>
