<?xml version="1.0" encoding="utf-8"?>
<!-- Generator: Adobe Illustrator 18.0.0, SVG Export Plug-In . SVG Version: 6.00 Build 0)  -->
<!DOCTYPE svg PUBLIC "-//W3C//DTD SVG 1.1//EN" "http://www.w3.org/Graphics/SVG/1.1/DTD/svg11.dtd">
<svg version="1.1" id="Layer_1" xmlns="http://www.w3.org/2000/svg" xmlns:xlink="http://www.w3.org/1999/xlink" x="0px" y="0px"
	 viewBox="6.6 9.1 46.5 41.8" enable-background="new 6.6 9.1 46.5 41.8" xml:space="preserve">
<g id="XMLID_1_">
	<g>
		<g>
			<polygon points="52.5,50.4 7.1,50.4 7.6,49.9 52,49.9 			"/>
		</g>
		<g>
			<polygon fill="#FFFFFF" points="52,10.3 52,49.9 52,49.9 29.7,30.2 			"/>
		</g>
		<g>
			<polygon fill="#808080" points="52,10.1 52,10.3 29.7,30.2 7.6,10.5 7.6,10.1 			"/>
		</g>
		<g>
			<polygon fill="#808080" points="52,49.9 7.6,49.9 29.7,30.2 			"/>
		</g>
		<g>
			<polygon fill="#FFFFFF" points="29.7,30.2 7.6,49.9 7.6,49.9 7.6,10.5 			"/>
		</g>
		<g>
			<polygon points="7.6,49.9 7.6,49.9 7.1,50.4 7.1,10.1 7.6,10.5 			"/>
		</g>
		<g>
			<polygon points="52.5,9.6 52.5,50.4 52,49.9 52,49.9 52,10.3 52,10.1 7.6,10.1 7.6,10.5 7.1,10.1 7.1,9.6 			"/>
		</g>
		<g>
			<path d="M52.5,50.4V9.6H7.1v0.5v40.3H52.5z M53,9.1v41.8H6.6V9.1H53z"/>
		</g>
	</g>
	<g>
		<g>
			<polygon points="52.2,50.8 51.6,50.3 6.7,10.4 7.4,9.7 7.9,10.1 52.9,50 			"/>
		</g>
		<g>
			<polygon points="7.4,50.8 6.7,50 51.9,9.7 52.6,10.4 52.4,10.6 			"/>
		</g>
	</g>
</g>
</svg>
