<?xml version="1.0" encoding="utf-8"?>
<!-- Generator: Adobe Illustrator 17.0.0, SVG Export Plug-In . SVG Version: 6.00 Build 0)  -->
<!DOCTYPE svg PUBLIC "-//W3C//DTD SVG 1.1//EN" "http://www.w3.org/Graphics/SVG/1.1/DTD/svg11.dtd">
<svg version="1.1" id="Layer_1" xmlns="http://www.w3.org/2000/svg" xmlns:xlink="http://www.w3.org/1999/xlink" x="0px" y="0px"
	 width="60px" height="60px" viewBox="0 0 60 60" enable-background="new 0 0 60 60" xml:space="preserve">
<g id="XMLID_1_">
	<g>
		<polygon points="52.53,50.42 7.06,50.42 7.62,49.92 51.97,49.92 		"/>
		<polygon fill="#FFFFFF" points="52.03,10.27 52.03,49.92 51.97,49.92 29.72,30.18 		"/>
		<polygon fill="#808080" points="52.03,10.09 52.03,10.27 29.72,30.18 7.56,10.51 7.56,10.09 		"/>
		<polygon fill="#808080" points="51.97,49.92 7.62,49.92 29.72,30.18 		"/>
		<polygon fill="#FFFFFF" points="29.72,30.18 7.62,49.92 7.56,49.92 7.56,10.51 		"/>
		<polygon points="7.56,49.92 7.62,49.92 7.06,50.42 7.06,10.07 7.56,10.51 		"/>
		<polygon points="52.53,9.59 52.53,50.42 51.97,49.92 52.03,49.92 52.03,10.27 52.03,10.09 7.56,10.09 7.56,10.51 7.06,10.07 
			7.06,9.59 		"/>
		<path d="M52.53,50.42V9.59H7.06v0.48v40.35H52.53z M53.03,9.09v41.83H6.56V9.09H53.03z"/>
	</g>
	<g>
		<polyline fill="none" stroke="#000000" stroke-miterlimit="10" points="7.06,10.07 7.56,10.51 29.72,30.18 51.97,49.92 
			52.53,50.42 		"/>
		<polyline fill="none" stroke="#000000" stroke-miterlimit="10" points="7.06,50.42 7.62,49.92 29.72,30.18 52.03,10.27 
			52.25,10.07 		"/>
	</g>
</g>
</svg>
