<?xml version="1.0" encoding="utf-8"?>
<!-- Generator: Adobe Illustrator 18.0.0, SVG Export Plug-In . SVG Version: 6.00 Build 0)  -->
<!DOCTYPE svg PUBLIC "-//W3C//DTD SVG 1.1//EN" "http://www.w3.org/Graphics/SVG/1.1/DTD/svg11.dtd">
<svg version="1.1" id="Layer_1" xmlns="http://www.w3.org/2000/svg" xmlns:xlink="http://www.w3.org/1999/xlink" x="0px" y="0px"
	 viewBox="4.3 5.4 47.7 43.6" enable-background="new 4.3 5.4 47.7 43.6" xml:space="preserve">
<g>
	<rect x="7.6" y="17.7" fill="#FFFFFF" width="41.6" height="30.3"/>
	<g>
		<path fill="#FFFFFF" d="M51,11.7c0,3-2.4,5.3-5.4,5.3H10.7c-3,0-5.4-2.4-5.4-5.3l0,0c0-3,2.4-5.3,5.4-5.3h34.9
			C48.5,6.4,51,8.7,51,11.7L51,11.7z"/>
		<path d="M52,11.7c0-3.5-2.9-6.3-6.4-6.3H10.7c-3.5,0-6.4,2.8-6.4,6.3c0,2,1,3.8,2.5,5H6.6V49h43.6V16.7h-0.7
			C51,15.5,52,13.7,52,11.7z M10.7,7.4h34.9c2.4,0,4.4,1.9,4.4,4.3c0,2.4-2,4.3-4.4,4.3H10.7c-2.4,0-4.4-1.9-4.4-4.3
			C6.3,9.3,8.3,7.4,10.7,7.4z M48.2,47H8.6V18.7h39.6V47z"/>
	</g>
</g>
</svg>
