<?xml version="1.0" encoding="utf-8"?>
<!-- Generator: Adobe Illustrator 18.0.0, SVG Export Plug-In . SVG Version: 6.00 Build 0)  -->
<!DOCTYPE svg PUBLIC "-//W3C//DTD SVG 1.1//EN" "http://www.w3.org/Graphics/SVG/1.1/DTD/svg11.dtd">
<svg version="1.1" id="Layer_1" xmlns="http://www.w3.org/2000/svg" xmlns:xlink="http://www.w3.org/1999/xlink" x="0px" y="0px"
	 viewBox="9 2 42 55" enable-background="new 9 2 42 55" xml:space="preserve">
<g>
	<path fill="#FFFFFF" d="M50,45.7c0,5.7-4.1,10.3-9.2,10.3H19.2c-5.1,0-9.2-4.6-9.2-10.3V13.3C10,7.6,14.1,3,19.2,3h21.5
		C45.9,3,50,7.6,50,13.3V45.7z"/>
	<path d="M40.8,57H19.2C13.6,57,9,52,9,45.7V13.3C9,7.1,13.6,2,19.2,2h21.5C46.4,2,51,7.1,51,13.3v32.5C51,52,46.4,57,40.8,57z
		 M19.2,4C14.7,4,11,8.2,11,13.3v32.5c0,5.1,3.7,9.3,8.2,9.3h21.5c4.5,0,8.2-4.2,8.2-9.3V13.3C49,8.2,45.3,4,40.8,4H19.2z"/>
</g>
<g>
	<path fill="#FFFFFF" d="M26.9,42.5c0,4.1-2.8,7.5-6.2,7.5l0,0c-3.4,0-6.2-3.3-6.2-7.5V17.3c0-4.1,2.8-7.5,6.2-7.5l0,0
		c3.4,0,6.2,3.3,6.2,7.5V42.5z"/>
	<path d="M20.8,51c-3.9,0-7.2-3.8-7.2-8.5V17.3c0-4.7,3.2-8.5,7.2-8.5s7.2,3.8,7.2,8.5v25.2C27.9,47.2,24.7,51,20.8,51z M20.8,10.8
		c-2.8,0-5.2,2.9-5.2,6.5v25.2c0,3.6,2.3,6.5,5.2,6.5s5.2-2.9,5.2-6.5V17.3C25.9,13.7,23.6,10.8,20.8,10.8z"/>
</g>
<g>
	<rect x="30" y="12.2" fill="#CDC9C1" width="15.4" height="9"/>
	<path d="M45.9,21.7H29.5v-10h16.4V21.7z M30.5,20.7h14.4v-8H30.5V20.7z"/>
</g>
<g>
	<path d="M30,29.5c0,1.4,1,2.6,2.3,2.6l0,0c1.3,0,2.3-1.1,2.3-2.6v-0.9c0-1.4-1-2.6-2.3-2.6l0,0c-1.3,0-2.3,1.1-2.3,2.6
		C30,28.6,30,29.5,30,29.5z"/>
</g>
<g>
	<path d="M36.2,29.5c0,1.4,1,2.6,2.3,2.6l0,0c1.3,0,2.3-1.1,2.3-2.6v-0.9c0-1.4-1-2.6-2.3-2.6l0,0c-1.3,0-2.3,1.1-2.3,2.6V29.5z"/>
</g>
<g>
	<path d="M30,38c0,1.4,1,2.6,2.3,2.6l0,0c1.3,0,2.3-1.1,2.3-2.6v-0.9c0-1.4-1-2.6-2.3-2.6l0,0c-1.3,0-2.3,1.1-2.3,2.6
		C30,37.2,30,38,30,38z"/>
</g>
<g>
	<path d="M36.2,38c0,1.4,1,2.6,2.3,2.6l0,0c1.3,0,2.3-1.1,2.3-2.6v-0.9c0-1.4-1-2.6-2.3-2.6l0,0c-1.3,0-2.3,1.1-2.3,2.6V38z"/>
</g>
<g>
	<path d="M42.3,29.5c0,1.4,1,2.6,2.3,2.6l0,0c1.3,0,2.3-1.1,2.3-2.6v-0.9c0-1.4-1-2.6-2.3-2.6l0,0c-1.3,0-2.3,1.1-2.3,2.6V29.5z"/>
</g>
<g>
	<path d="M42.3,38c0,1.4,1,2.6,2.3,2.6l0,0c1.3,0,2.3-1.1,2.3-2.6v-0.9c0-1.4-1-2.6-2.3-2.6l0,0c-1.3,0-2.3,1.1-2.3,2.6V38z"/>
</g>
<g>
	<path d="M42.3,45.7c0,1.4,1,2.6,2.3,2.6l0,0c1.3,0,2.3-1.1,2.3-2.6v-0.9c0-1.4-1-2.6-2.3-2.6l0,0c-1.3,0-2.3,1.1-2.3,2.6V45.7z"/>
</g>
<g>
	<path d="M30,45.7c0,1.4,1,2.6,2.3,2.6l0,0c1.3,0,2.3-1.1,2.3-2.6v-0.9c0-1.4-1-2.6-2.3-2.6l0,0c-1.3,0-2.3,1.1-2.3,2.6
		C30,44.9,30,45.7,30,45.7z"/>
</g>
<g>
	<path d="M36.2,45.7c0,1.4,1,2.6,2.3,2.6l0,0c1.3,0,2.3-1.1,2.3-2.6v-0.9c0-1.4-1-2.6-2.3-2.6l0,0c-1.3,0-2.3,1.1-2.3,2.6V45.7z"/>
</g>
</svg>
