<?xml version="1.0" encoding="utf-8"?>
<!-- Generator: Adobe Illustrator 17.0.0, SVG Export Plug-In . SVG Version: 6.00 Build 0)  -->
<!DOCTYPE svg PUBLIC "-//W3C//DTD SVG 1.1//EN" "http://www.w3.org/Graphics/SVG/1.1/DTD/svg11.dtd">
<svg version="1.1" id="Layer_1" xmlns="http://www.w3.org/2000/svg" xmlns:xlink="http://www.w3.org/1999/xlink" x="0px" y="0px"
	 width="60px" height="60px" viewBox="0 0 60 60" enable-background="new 0 0 60 60" xml:space="preserve">
<path fill="#FFFFFF" stroke="#000000" stroke-width="2" stroke-miterlimit="10" d="M50,45.742C50,51.407,45.867,56,40.769,56H19.231
	C14.133,56,10,51.407,10,45.742V13.258C10,7.593,14.133,3,19.231,3h21.538C45.867,3,50,7.593,50,13.258V45.742z"/>
<path fill="#FFFFFF" stroke="#000000" stroke-width="2" stroke-miterlimit="10" d="M26.923,42.541c0,4.128-2.755,7.475-6.154,7.475
	l0,0c-3.399,0-6.154-3.347-6.154-7.475V17.314c0-4.128,2.755-7.475,6.154-7.475l0,0c3.399,0,6.154,3.347,6.154,7.475V42.541z"/>
<rect x="30" y="12.19" fill="#CDC9C1" stroke="#000000" stroke-miterlimit="10" width="15.385" height="8.976"/>
<path d="M30,29.5c0,1.416,1.033,2.565,2.308,2.565l0,0c1.275,0,2.308-1.148,2.308-2.565v-0.855c0-1.416-1.033-2.565-2.308-2.565l0,0
	c-1.275,0-2.308,1.148-2.308,2.565V29.5z"/>
<path d="M36.154,29.5c0,1.416,1.033,2.565,2.308,2.565l0,0c1.275,0,2.308-1.148,2.308-2.565v-0.855c0-1.416-1.033-2.565-2.308-2.565
	l0,0c-1.275,0-2.308,1.148-2.308,2.565V29.5z"/>
<path d="M30,38.048c0,1.416,1.033,2.565,2.308,2.565l0,0c1.275,0,2.308-1.148,2.308-2.565v-0.855c0-1.416-1.033-2.565-2.308-2.565
	l0,0c-1.275,0-2.308,1.148-2.308,2.565V38.048z"/>
<path d="M36.154,38.048c0,1.416,1.033,2.565,2.308,2.565l0,0c1.275,0,2.308-1.148,2.308-2.565v-0.855
	c0-1.416-1.033-2.565-2.308-2.565l0,0c-1.275,0-2.308,1.148-2.308,2.565V38.048z"/>
<path d="M42.308,29.5c0,1.416,1.033,2.565,2.308,2.565l0,0c1.275,0,2.308-1.148,2.308-2.565v-0.855c0-1.416-1.033-2.565-2.308-2.565
	l0,0c-1.275,0-2.308,1.148-2.308,2.565V29.5z"/>
<path d="M42.308,38.048c0,1.416,1.033,2.565,2.308,2.565l0,0c1.275,0,2.308-1.148,2.308-2.565v-0.855
	c0-1.416-1.033-2.565-2.308-2.565l0,0c-1.275,0-2.308,1.148-2.308,2.565V38.048z"/>
<path d="M42.308,45.742c0,1.416,1.033,2.565,2.308,2.565l0,0c1.275,0,2.308-1.148,2.308-2.565v-0.855
	c0-1.416-1.033-2.565-2.308-2.565l0,0c-1.275,0-2.308,1.148-2.308,2.565V45.742z"/>
<path d="M30,45.742c0,1.416,1.033,2.565,2.308,2.565l0,0c1.275,0,2.308-1.148,2.308-2.565v-0.855c0-1.416-1.033-2.565-2.308-2.565
	l0,0c-1.275,0-2.308,1.148-2.308,2.565V45.742z"/>
<path d="M36.154,45.742c0,1.416,1.033,2.565,2.308,2.565l0,0c1.275,0,2.308-1.148,2.308-2.565v-0.855
	c0-1.416-1.033-2.565-2.308-2.565l0,0c-1.275,0-2.308,1.148-2.308,2.565V45.742z"/>
</svg>
