<?xml version="1.0" encoding="utf-8"?>
<!-- Generator: Adobe Illustrator 18.0.0, SVG Export Plug-In . SVG Version: 6.00 Build 0)  -->
<!DOCTYPE svg PUBLIC "-//W3C//DTD SVG 1.1//EN" "http://www.w3.org/Graphics/SVG/1.1/DTD/svg11.dtd">
<svg version="1.1" id="Layer_1" xmlns="http://www.w3.org/2000/svg" xmlns:xlink="http://www.w3.org/1999/xlink" x="0px" y="0px"
	 viewBox="9.6 19 60.7 43" enable-background="new 9.6 19 60.7 43" xml:space="preserve">
<g>
	<g>
		<ellipse fill="#CDC9C1" cx="63" cy="56" rx="6.9" ry="2.1"/>
		<path d="M63,58.6c-3.7,0-7.4-0.9-7.4-2.6c0-3.4,14.7-3.4,14.7,0C70.4,57.7,66.7,58.6,63,58.6z M63,54.4c-4.1,0-6.4,1.1-6.4,1.6
			s2.2,1.6,6.4,1.6s6.4-1.1,6.4-1.6S67.1,54.4,63,54.4z"/>
	</g>
	<g>
		<ellipse fill="#CDC9C1" cx="17" cy="56" rx="6.9" ry="2.1"/>
		<path d="M17,58.6c-3.7,0-7.4-0.9-7.4-2.6c0-3.4,14.7-3.4,14.7,0C24.4,57.7,20.7,58.6,17,58.6z M17,54.4c-4.1,0-6.4,1.1-6.4,1.6
			s2.2,1.6,6.4,1.6s6.4-1.1,6.4-1.6S21.1,54.4,17,54.4z"/>
	</g>
	<g>
		<ellipse fill="#CDC9C1" cx="39.5" cy="54.2" rx="20.5" ry="6"/>
		<path d="M39.5,60.7c-10.3,0-21-2.4-21-6.5s10.7-6.5,21-6.5c10.3,0,21,2.4,21,6.5S49.8,60.7,39.5,60.7z M39.5,48.7
			c-11.8,0-20,2.9-20,5.5s8.2,5.5,20,5.5s20-2.9,20-5.5S51.3,48.7,39.5,48.7z"/>
	</g>
	<g>
		<rect x="11" y="20" fill="#FFFFFF" width="56" height="32.1"/>
		<path d="M68,53.1H10V19h58V53.1z M12,51.1h54V21H12V51.1z"/>
	</g>
	<g>
		<ellipse fill="#CDC9C1" cx="40" cy="57" rx="6.5" ry="4.5"/>
		<path d="M40,62c-3.9,0-7-2.2-7-5s3.1-5,7-5c3.9,0,7,2.2,7,5S43.9,62,40,62z M40,53c-3.3,0-6,1.8-6,4s2.7,4,6,4s6-1.8,6-4
			S43.3,53,40,53z"/>
	</g>
</g>
</svg>
